<?xml version="1.0" encoding="UTF-8" standalone="no"?>
<!DOCTYPE svg PUBLIC "-//W3C//DTD SVG 1.1//EN"
 "http://www.w3.org/Graphics/SVG/1.1/DTD/svg11.dtd">
<!-- Generated by graphviz version 2.43.0 (0)
 -->
<!-- Title: Tree Pages: 1 -->
<svg width="810pt" height="581pt"
 viewBox="0.00 0.00 810.00 581.00" xmlns="http://www.w3.org/2000/svg" xmlns:xlink="http://www.w3.org/1999/xlink">
<g id="graph0" class="graph" transform="scale(1 1) rotate(0) translate(4 577)">
<title>Tree</title>
<polygon fill="white" stroke="transparent" points="-4,4 -4,-577 806,-577 806,4 -4,4"/>
<!-- 0 -->
<g id="node1" class="node">
<title>0</title>
<polygon fill="none" stroke="black" points="365.5,-573 230.5,-573 230.5,-505 365.5,-505 365.5,-573"/>
<text text-anchor="middle" x="298" y="-557.8" font-family="Helvetica,sans-Serif" font-size="14.00">Goal Scored &lt;= 0.5</text>
<text text-anchor="middle" x="298" y="-542.8" font-family="Helvetica,sans-Serif" font-size="14.00">gini = 0.5</text>
<text text-anchor="middle" x="298" y="-527.8" font-family="Helvetica,sans-Serif" font-size="14.00">samples = 96</text>
<text text-anchor="middle" x="298" y="-512.8" font-family="Helvetica,sans-Serif" font-size="14.00">value = [48, 48]</text>
</g>
<!-- 1 -->
<g id="node2" class="node">
<title>1</title>
<polygon fill="none" stroke="black" points="289,-469 169,-469 169,-401 289,-401 289,-469"/>
<text text-anchor="middle" x="229" y="-453.8" font-family="Helvetica,sans-Serif" font-size="14.00">On&#45;Target &lt;= 7.5</text>
<text text-anchor="middle" x="229" y="-438.8" font-family="Helvetica,sans-Serif" font-size="14.00">gini = 0.142</text>
<text text-anchor="middle" x="229" y="-423.8" font-family="Helvetica,sans-Serif" font-size="14.00">samples = 26</text>
<text text-anchor="middle" x="229" y="-408.8" font-family="Helvetica,sans-Serif" font-size="14.00">value = [24, 2]</text>
</g>
<!-- 0&#45;&gt;1 -->
<g id="edge1" class="edge">
<title>0&#45;&gt;1</title>
<path fill="none" stroke="black" d="M275.6,-504.88C269.75,-496.24 263.38,-486.82 257.27,-477.79"/>
<polygon fill="black" stroke="black" points="260.03,-475.62 251.53,-469.3 254.23,-479.54 260.03,-475.62"/>
<text text-anchor="middle" x="246.79" y="-490.15" font-family="Helvetica,sans-Serif" font-size="14.00">True</text>
</g>
<!-- 6 -->
<g id="node7" class="node">
<title>6</title>
<polygon fill="none" stroke="black" points="428.5,-469 307.5,-469 307.5,-401 428.5,-401 428.5,-469"/>
<text text-anchor="middle" x="368" y="-453.8" font-family="Helvetica,sans-Serif" font-size="14.00">Attempts &lt;= 24.0</text>
<text text-anchor="middle" x="368" y="-438.8" font-family="Helvetica,sans-Serif" font-size="14.00">gini = 0.451</text>
<text text-anchor="middle" x="368" y="-423.8" font-family="Helvetica,sans-Serif" font-size="14.00">samples = 70</text>
<text text-anchor="middle" x="368" y="-408.8" font-family="Helvetica,sans-Serif" font-size="14.00">value = [24, 46]</text>
</g>
<!-- 0&#45;&gt;6 -->
<g id="edge6" class="edge">
<title>0&#45;&gt;6</title>
<path fill="none" stroke="black" d="M320.73,-504.88C326.66,-496.24 333.12,-486.82 339.32,-477.79"/>
<polygon fill="black" stroke="black" points="342.37,-479.52 345.15,-469.3 336.6,-475.56 342.37,-479.52"/>
<text text-anchor="middle" x="349.72" y="-490.18" font-family="Helvetica,sans-Serif" font-size="14.00">False</text>
</g>
<!-- 2 -->
<g id="node3" class="node">
<title>2</title>
<polygon fill="none" stroke="black" points="168.5,-365 49.5,-365 49.5,-297 168.5,-297 168.5,-365"/>
<text text-anchor="middle" x="109" y="-349.8" font-family="Helvetica,sans-Serif" font-size="14.00">Passes &lt;= 634.0</text>
<text text-anchor="middle" x="109" y="-334.8" font-family="Helvetica,sans-Serif" font-size="14.00">gini = 0.077</text>
<text text-anchor="middle" x="109" y="-319.8" font-family="Helvetica,sans-Serif" font-size="14.00">samples = 25</text>
<text text-anchor="middle" x="109" y="-304.8" font-family="Helvetica,sans-Serif" font-size="14.00">value = [24, 1]</text>
</g>
<!-- 1&#45;&gt;2 -->
<g id="edge2" class="edge">
<title>1&#45;&gt;2</title>
<path fill="none" stroke="black" d="M190.04,-400.88C179.14,-391.62 167.18,-381.45 155.88,-371.85"/>
<polygon fill="black" stroke="black" points="158.06,-369.11 148.18,-365.3 153.53,-374.44 158.06,-369.11"/>
</g>
<!-- 5 -->
<g id="node6" class="node">
<title>5</title>
<polygon fill="none" stroke="black" points="281.5,-357.5 186.5,-357.5 186.5,-304.5 281.5,-304.5 281.5,-357.5"/>
<text text-anchor="middle" x="234" y="-342.3" font-family="Helvetica,sans-Serif" font-size="14.00">gini = 0.0</text>
<text text-anchor="middle" x="234" y="-327.3" font-family="Helvetica,sans-Serif" font-size="14.00">samples = 1</text>
<text text-anchor="middle" x="234" y="-312.3" font-family="Helvetica,sans-Serif" font-size="14.00">value = [0, 1]</text>
</g>
<!-- 1&#45;&gt;5 -->
<g id="edge5" class="edge">
<title>1&#45;&gt;5</title>
<path fill="none" stroke="black" d="M230.62,-400.88C231.15,-390.22 231.73,-378.35 232.26,-367.52"/>
<polygon fill="black" stroke="black" points="235.76,-367.68 232.75,-357.52 228.76,-367.34 235.76,-367.68"/>
</g>
<!-- 3 -->
<g id="node4" class="node">
<title>3</title>
<polygon fill="none" stroke="black" points="102,-253.5 0,-253.5 0,-200.5 102,-200.5 102,-253.5"/>
<text text-anchor="middle" x="51" y="-238.3" font-family="Helvetica,sans-Serif" font-size="14.00">gini = 0.0</text>
<text text-anchor="middle" x="51" y="-223.3" font-family="Helvetica,sans-Serif" font-size="14.00">samples = 23</text>
<text text-anchor="middle" x="51" y="-208.3" font-family="Helvetica,sans-Serif" font-size="14.00">value = [23, 0]</text>
</g>
<!-- 2&#45;&gt;3 -->
<g id="edge3" class="edge">
<title>2&#45;&gt;3</title>
<path fill="none" stroke="black" d="M90.17,-296.88C83.92,-285.89 76.94,-273.62 70.63,-262.52"/>
<polygon fill="black" stroke="black" points="73.5,-260.48 65.51,-253.52 67.41,-263.94 73.5,-260.48"/>
</g>
<!-- 4 -->
<g id="node5" class="node">
<title>4</title>
<polygon fill="none" stroke="black" points="215.5,-253.5 120.5,-253.5 120.5,-200.5 215.5,-200.5 215.5,-253.5"/>
<text text-anchor="middle" x="168" y="-238.3" font-family="Helvetica,sans-Serif" font-size="14.00">gini = 0.5</text>
<text text-anchor="middle" x="168" y="-223.3" font-family="Helvetica,sans-Serif" font-size="14.00">samples = 2</text>
<text text-anchor="middle" x="168" y="-208.3" font-family="Helvetica,sans-Serif" font-size="14.00">value = [1, 1]</text>
</g>
<!-- 2&#45;&gt;4 -->
<g id="edge4" class="edge">
<title>2&#45;&gt;4</title>
<path fill="none" stroke="black" d="M128.16,-296.88C134.58,-285.78 141.76,-273.37 148.23,-262.18"/>
<polygon fill="black" stroke="black" points="151.26,-263.93 153.24,-253.52 145.2,-260.42 151.26,-263.93"/>
</g>
<!-- 7 -->
<g id="node8" class="node">
<title>7</title>
<polygon fill="none" stroke="black" points="419,-365 309,-365 309,-297 419,-297 419,-365"/>
<text text-anchor="middle" x="364" y="-349.8" font-family="Helvetica,sans-Serif" font-size="14.00">Corners &lt;= 4.5</text>
<text text-anchor="middle" x="364" y="-334.8" font-family="Helvetica,sans-Serif" font-size="14.00">gini = 0.43</text>
<text text-anchor="middle" x="364" y="-319.8" font-family="Helvetica,sans-Serif" font-size="14.00">samples = 67</text>
<text text-anchor="middle" x="364" y="-304.8" font-family="Helvetica,sans-Serif" font-size="14.00">value = [21, 46]</text>
</g>
<!-- 6&#45;&gt;7 -->
<g id="edge7" class="edge">
<title>6&#45;&gt;7</title>
<path fill="none" stroke="black" d="M366.7,-400.88C366.38,-392.78 366.04,-383.98 365.7,-375.47"/>
<polygon fill="black" stroke="black" points="369.2,-375.15 365.31,-365.3 362.2,-375.43 369.2,-375.15"/>
</g>
<!-- 20 -->
<g id="node21" class="node">
<title>20</title>
<polygon fill="none" stroke="black" points="532.5,-357.5 437.5,-357.5 437.5,-304.5 532.5,-304.5 532.5,-357.5"/>
<text text-anchor="middle" x="485" y="-342.3" font-family="Helvetica,sans-Serif" font-size="14.00">gini = 0.0</text>
<text text-anchor="middle" x="485" y="-327.3" font-family="Helvetica,sans-Serif" font-size="14.00">samples = 3</text>
<text text-anchor="middle" x="485" y="-312.3" font-family="Helvetica,sans-Serif" font-size="14.00">value = [3, 0]</text>
</g>
<!-- 6&#45;&gt;20 -->
<g id="edge20" class="edge">
<title>6&#45;&gt;20</title>
<path fill="none" stroke="black" d="M405.99,-400.88C419.48,-389.12 434.65,-375.89 448.06,-364.2"/>
<polygon fill="black" stroke="black" points="450.49,-366.73 455.73,-357.52 445.89,-361.45 450.49,-366.73"/>
</g>
<!-- 8 -->
<g id="node9" class="node">
<title>8</title>
<polygon fill="none" stroke="black" points="384.5,-261 263.5,-261 263.5,-193 384.5,-193 384.5,-261"/>
<text text-anchor="middle" x="324" y="-245.8" font-family="Helvetica,sans-Serif" font-size="14.00">Attempts &lt;= 12.5</text>
<text text-anchor="middle" x="324" y="-230.8" font-family="Helvetica,sans-Serif" font-size="14.00">gini = 0.499</text>
<text text-anchor="middle" x="324" y="-215.8" font-family="Helvetica,sans-Serif" font-size="14.00">samples = 31</text>
<text text-anchor="middle" x="324" y="-200.8" font-family="Helvetica,sans-Serif" font-size="14.00">value = [15, 16]</text>
</g>
<!-- 7&#45;&gt;8 -->
<g id="edge8" class="edge">
<title>7&#45;&gt;8</title>
<path fill="none" stroke="black" d="M351.01,-296.88C347.73,-288.51 344.16,-279.4 340.72,-270.63"/>
<polygon fill="black" stroke="black" points="343.97,-269.33 337.06,-261.3 337.45,-271.89 343.97,-269.33"/>
</g>
<!-- 13 -->
<g id="node14" class="node">
<title>13</title>
<polygon fill="none" stroke="black" points="625,-261 403,-261 403,-193 625,-193 625,-261"/>
<text text-anchor="middle" x="514" y="-245.8" font-family="Helvetica,sans-Serif" font-size="14.00">Distance Covered (Kms) &lt;= 101.5</text>
<text text-anchor="middle" x="514" y="-230.8" font-family="Helvetica,sans-Serif" font-size="14.00">gini = 0.278</text>
<text text-anchor="middle" x="514" y="-215.8" font-family="Helvetica,sans-Serif" font-size="14.00">samples = 36</text>
<text text-anchor="middle" x="514" y="-200.8" font-family="Helvetica,sans-Serif" font-size="14.00">value = [6, 30]</text>
</g>
<!-- 7&#45;&gt;13 -->
<g id="edge13" class="edge">
<title>7&#45;&gt;13</title>
<path fill="none" stroke="black" d="M412.7,-296.88C426.79,-287.3 442.29,-276.76 456.85,-266.86"/>
<polygon fill="black" stroke="black" points="458.99,-269.64 465.29,-261.12 455.05,-263.85 458.99,-269.64"/>
</g>
<!-- 9 -->
<g id="node10" class="node">
<title>9</title>
<polygon fill="none" stroke="black" points="274.5,-157 139.5,-157 139.5,-89 274.5,-89 274.5,-157"/>
<text text-anchor="middle" x="207" y="-141.8" font-family="Helvetica,sans-Serif" font-size="14.00">Goal Scored &lt;= 3.5</text>
<text text-anchor="middle" x="207" y="-126.8" font-family="Helvetica,sans-Serif" font-size="14.00">gini = 0.488</text>
<text text-anchor="middle" x="207" y="-111.8" font-family="Helvetica,sans-Serif" font-size="14.00">samples = 26</text>
<text text-anchor="middle" x="207" y="-96.8" font-family="Helvetica,sans-Serif" font-size="14.00">value = [15, 11]</text>
</g>
<!-- 8&#45;&gt;9 -->
<g id="edge9" class="edge">
<title>8&#45;&gt;9</title>
<path fill="none" stroke="black" d="M286.01,-192.88C275.49,-183.71 263.95,-173.65 253.02,-164.12"/>
<polygon fill="black" stroke="black" points="255.03,-161.23 245.2,-157.3 250.43,-166.51 255.03,-161.23"/>
</g>
<!-- 12 -->
<g id="node13" class="node">
<title>12</title>
<polygon fill="none" stroke="black" points="387.5,-149.5 292.5,-149.5 292.5,-96.5 387.5,-96.5 387.5,-149.5"/>
<text text-anchor="middle" x="340" y="-134.3" font-family="Helvetica,sans-Serif" font-size="14.00">gini = 0.0</text>
<text text-anchor="middle" x="340" y="-119.3" font-family="Helvetica,sans-Serif" font-size="14.00">samples = 5</text>
<text text-anchor="middle" x="340" y="-104.3" font-family="Helvetica,sans-Serif" font-size="14.00">value = [0, 5]</text>
</g>
<!-- 8&#45;&gt;12 -->
<g id="edge12" class="edge">
<title>8&#45;&gt;12</title>
<path fill="none" stroke="black" d="M329.19,-192.88C330.87,-182.22 332.73,-170.35 334.43,-159.52"/>
<polygon fill="black" stroke="black" points="337.9,-159.94 336,-149.52 330.99,-158.86 337.9,-159.94"/>
</g>
<!-- 10 -->
<g id="node11" class="node">
<title>10</title>
<polygon fill="none" stroke="black" points="182,-53 80,-53 80,0 182,0 182,-53"/>
<text text-anchor="middle" x="131" y="-37.8" font-family="Helvetica,sans-Serif" font-size="14.00">gini = 0.454</text>
<text text-anchor="middle" x="131" y="-22.8" font-family="Helvetica,sans-Serif" font-size="14.00">samples = 23</text>
<text text-anchor="middle" x="131" y="-7.8" font-family="Helvetica,sans-Serif" font-size="14.00">value = [15, 8]</text>
</g>
<!-- 9&#45;&gt;10 -->
<g id="edge10" class="edge">
<title>9&#45;&gt;10</title>
<path fill="none" stroke="black" d="M180.42,-88.95C173.21,-79.98 165.39,-70.27 158.15,-61.26"/>
<polygon fill="black" stroke="black" points="160.69,-58.84 151.7,-53.24 155.24,-63.22 160.69,-58.84"/>
</g>
<!-- 11 -->
<g id="node12" class="node">
<title>11</title>
<polygon fill="none" stroke="black" points="295.5,-53 200.5,-53 200.5,0 295.5,0 295.5,-53"/>
<text text-anchor="middle" x="248" y="-37.8" font-family="Helvetica,sans-Serif" font-size="14.00">gini = 0.0</text>
<text text-anchor="middle" x="248" y="-22.8" font-family="Helvetica,sans-Serif" font-size="14.00">samples = 3</text>
<text text-anchor="middle" x="248" y="-7.8" font-family="Helvetica,sans-Serif" font-size="14.00">value = [0, 3]</text>
</g>
<!-- 9&#45;&gt;11 -->
<g id="edge11" class="edge">
<title>9&#45;&gt;11</title>
<path fill="none" stroke="black" d="M221.34,-88.95C225.03,-80.44 229.02,-71.26 232.75,-62.65"/>
<polygon fill="black" stroke="black" points="236.06,-63.8 236.83,-53.24 229.64,-61.02 236.06,-63.8"/>
</g>
<!-- 14 -->
<g id="node15" class="node">
<title>14</title>
<polygon fill="none" stroke="black" points="558,-157 438,-157 438,-89 558,-89 558,-157"/>
<text text-anchor="middle" x="498" y="-141.8" font-family="Helvetica,sans-Serif" font-size="14.00">Off&#45;Target &lt;= 7.5</text>
<text text-anchor="middle" x="498" y="-126.8" font-family="Helvetica,sans-Serif" font-size="14.00">gini = 0.49</text>
<text text-anchor="middle" x="498" y="-111.8" font-family="Helvetica,sans-Serif" font-size="14.00">samples = 7</text>
<text text-anchor="middle" x="498" y="-96.8" font-family="Helvetica,sans-Serif" font-size="14.00">value = [3, 4]</text>
</g>
<!-- 13&#45;&gt;14 -->
<g id="edge14" class="edge">
<title>13&#45;&gt;14</title>
<path fill="none" stroke="black" d="M508.81,-192.88C507.52,-184.69 506.12,-175.79 504.78,-167.19"/>
<polygon fill="black" stroke="black" points="508.23,-166.64 503.22,-157.3 501.32,-167.72 508.23,-166.64"/>
</g>
<!-- 17 -->
<g id="node18" class="node">
<title>17</title>
<polygon fill="none" stroke="black" points="707.5,-157 576.5,-157 576.5,-89 707.5,-89 707.5,-157"/>
<text text-anchor="middle" x="642" y="-141.8" font-family="Helvetica,sans-Serif" font-size="14.00">Free Kicks &lt;= 10.5</text>
<text text-anchor="middle" x="642" y="-126.8" font-family="Helvetica,sans-Serif" font-size="14.00">gini = 0.185</text>
<text text-anchor="middle" x="642" y="-111.8" font-family="Helvetica,sans-Serif" font-size="14.00">samples = 29</text>
<text text-anchor="middle" x="642" y="-96.8" font-family="Helvetica,sans-Serif" font-size="14.00">value = [3, 26]</text>
</g>
<!-- 13&#45;&gt;17 -->
<g id="edge17" class="edge">
<title>13&#45;&gt;17</title>
<path fill="none" stroke="black" d="M555.56,-192.88C567.29,-183.53 580.18,-173.26 592.35,-163.57"/>
<polygon fill="black" stroke="black" points="594.57,-166.27 600.21,-157.3 590.21,-160.79 594.57,-166.27"/>
</g>
<!-- 15 -->
<g id="node16" class="node">
<title>15</title>
<polygon fill="none" stroke="black" points="440.5,-53 345.5,-53 345.5,0 440.5,0 440.5,-53"/>
<text text-anchor="middle" x="393" y="-37.8" font-family="Helvetica,sans-Serif" font-size="14.00">gini = 0.0</text>
<text text-anchor="middle" x="393" y="-22.8" font-family="Helvetica,sans-Serif" font-size="14.00">samples = 4</text>
<text text-anchor="middle" x="393" y="-7.8" font-family="Helvetica,sans-Serif" font-size="14.00">value = [0, 4]</text>
</g>
<!-- 14&#45;&gt;15 -->
<g id="edge15" class="edge">
<title>14&#45;&gt;15</title>
<path fill="none" stroke="black" d="M461.28,-88.95C450.91,-79.62 439.64,-69.47 429.29,-60.16"/>
<polygon fill="black" stroke="black" points="431.37,-57.32 421.6,-53.24 426.69,-62.53 431.37,-57.32"/>
</g>
<!-- 16 -->
<g id="node17" class="node">
<title>16</title>
<polygon fill="none" stroke="black" points="553.5,-53 458.5,-53 458.5,0 553.5,0 553.5,-53"/>
<text text-anchor="middle" x="506" y="-37.8" font-family="Helvetica,sans-Serif" font-size="14.00">gini = 0.0</text>
<text text-anchor="middle" x="506" y="-22.8" font-family="Helvetica,sans-Serif" font-size="14.00">samples = 3</text>
<text text-anchor="middle" x="506" y="-7.8" font-family="Helvetica,sans-Serif" font-size="14.00">value = [3, 0]</text>
</g>
<!-- 14&#45;&gt;16 -->
<g id="edge16" class="edge">
<title>14&#45;&gt;16</title>
<path fill="none" stroke="black" d="M500.8,-88.95C501.5,-80.62 502.26,-71.65 502.98,-63.2"/>
<polygon fill="black" stroke="black" points="506.47,-63.5 503.82,-53.24 499.49,-62.91 506.47,-63.5"/>
</g>
<!-- 18 -->
<g id="node19" class="node">
<title>18</title>
<polygon fill="none" stroke="black" points="681.5,-53 586.5,-53 586.5,0 681.5,0 681.5,-53"/>
<text text-anchor="middle" x="634" y="-37.8" font-family="Helvetica,sans-Serif" font-size="14.00">gini = 0.48</text>
<text text-anchor="middle" x="634" y="-22.8" font-family="Helvetica,sans-Serif" font-size="14.00">samples = 5</text>
<text text-anchor="middle" x="634" y="-7.8" font-family="Helvetica,sans-Serif" font-size="14.00">value = [2, 3]</text>
</g>
<!-- 17&#45;&gt;18 -->
<g id="edge18" class="edge">
<title>17&#45;&gt;18</title>
<path fill="none" stroke="black" d="M639.2,-88.95C638.5,-80.62 637.74,-71.65 637.02,-63.2"/>
<polygon fill="black" stroke="black" points="640.51,-62.91 636.18,-53.24 633.53,-63.5 640.51,-62.91"/>
</g>
<!-- 19 -->
<g id="node20" class="node">
<title>19</title>
<polygon fill="none" stroke="black" points="802,-53 700,-53 700,0 802,0 802,-53"/>
<text text-anchor="middle" x="751" y="-37.8" font-family="Helvetica,sans-Serif" font-size="14.00">gini = 0.08</text>
<text text-anchor="middle" x="751" y="-22.8" font-family="Helvetica,sans-Serif" font-size="14.00">samples = 24</text>
<text text-anchor="middle" x="751" y="-7.8" font-family="Helvetica,sans-Serif" font-size="14.00">value = [1, 23]</text>
</g>
<!-- 17&#45;&gt;19 -->
<g id="edge19" class="edge">
<title>17&#45;&gt;19</title>
<path fill="none" stroke="black" d="M680.12,-88.95C690.99,-79.53 702.82,-69.27 713.64,-59.89"/>
<polygon fill="black" stroke="black" points="716.05,-62.43 721.31,-53.24 711.47,-57.14 716.05,-62.43"/>
</g>
</g>
</svg>
